<svg xmlns="http://www.w3.org/2000/svg" width="555.75" height="100" viewBox="0 0 555.75 100">
    <path d="M.208 98.25v-4.062h12.5V8.562H.208V4.5H39.27v4.062H26.145v85.625H47.55c1.146 0 2.345-.104 3.595-.312 5.833-1.354 10-6.82 12.5-16.406L66.3 67h3.126l-.78 31.25H.207zM130.364 35.75c9.688 6.355 14.53 16.094 14.53 29.22 0 9.687-3.02 17.76-9.06 24.218-6.563 7.086-14.845 10.625-24.845 10.625-7.086 0-13.543-1.978-19.376-5.938C82.03 87.313 77.24 77.47 77.24 64.345c0-9.48 3.07-17.396 9.218-23.75 6.665-6.876 15-10.313 25-10.313 6.875 0 13.176 1.823 18.906 5.468zm-38.75 41.406c2.708 12.5 9.32 18.75 19.844 18.75 1.978 0 3.906-.26 5.78-.78 9.584-3.02 14.376-13.282 14.376-30.782 0-3.02-.156-5.78-.47-8.28-1.874-14.583-8.593-21.876-20.155-21.876-2.5 0-4.898.418-7.19 1.25-8.854 3.542-13.28 13.386-13.28 29.53 0 4.48.364 8.544 1.094 12.188zM161.3 47.312c5.52-11.353 15.26-17.03 29.22-17.03 5.625 0 10.833 1.198 15.625 3.593C212.915 37.313 216.3 41.687 216.3 47c0 .625-.104 1.304-.31 2.03-.94 3.126-3.18 4.586-6.72 4.376-1.25-.104-2.397-.415-3.438-.938-1.667-1.04-2.812-3.645-3.438-7.812-.312-1.77-.574-3.07-.78-3.906-1.148-4.375-4.532-6.562-10.157-6.562-3.647 0-6.98.938-10 2.812-7.188 4.585-10.78 13.7-10.78 27.344 0 7.71 1.56 14.375 4.687 20 4.165 7.397 9.946 11.094 17.344 11.094.833 0 1.665-.05 2.5-.153 8.853-.832 15.208-5.363 19.062-13.597l4.062 1.406c-.73 1.772-1.72 3.543-2.97 5.312-5.52 7.604-13.698 11.406-24.53 11.406-7.292 0-13.804-1.93-19.53-5.78-9.273-6.25-13.907-15.677-13.907-28.282 0-6.875 1.3-13.02 3.906-18.438zM267.395 85.75c-.938 2.188-2.344 4.27-4.22 6.25-5.21 5.21-11.615 7.812-19.218 7.812-3.125 0-6.094-.574-8.906-1.722-6.98-2.915-10.468-8.332-10.468-16.25 0-2.29.312-4.426.938-6.403 3.54-10.207 17.55-15.312 42.03-15.312V50.28c-.31-10.103-5.365-15.468-15.155-16.093-4.167 0-7.24 1.304-9.22 3.906-.52.73-1.51 3.022-2.968 6.875-1.147 3.022-2.917 4.53-5.312 4.53-.522 0-1.042-.05-1.562-.155-3.022-.52-4.53-2.395-4.53-5.625 0-1.77.624-3.54 1.874-5.312 3.958-5.415 11.77-8.125 23.438-8.125h2.812c14.895.836 22.345 8.7 22.345 23.595v32.97c.104 5.21 1.508 7.917 4.22 8.124 3.334-.104 5.362-3.958 6.095-11.563l4.062.155c0 .52-.057 1.095-.156 1.72-.837 9.688-5.263 14.53-13.28 14.53-7.3-.105-11.57-4.79-12.82-14.062zM256.145 92c6.04-2.915 9.844-7.97 11.406-15.156v-12.5c-8.124.105-14.323.625-18.593 1.562-8.022 1.875-12.03 6.304-12.03 13.28 0 1.772.155 3.388.468 4.845 1.458 6.355 5.364 9.532 11.72 9.532 2.29 0 4.633-.52 7.03-1.562zM297.55 31.844h10.94V17l11.717-3.28v18.124h24.22v3.906h-24.22v47.5c.104 7.812 2.97 11.824 8.594 12.03 5-.728 8.803-5.414 11.407-14.06l4.22.78v.312c-2.397 11.77-8.387 17.653-17.97 17.653-11.25-.418-17.24-7.134-17.968-20.153V35.75h-10.94v-3.906zM383.488 94.5c1.562.21 2.344 1.46 2.344 3.75h-35.938v-3.906c3.54 0 6.097-.207 7.656-.625 3.23-1.04 4.844-3.958 4.844-8.75V35.75h-12.5v-3.906h24.222v62.5h7.812c.518 0 1.04.052 1.56.156zm-8.28-81.875c-1.46 3.335-4.012 5-7.657 5-1.145 0-2.29-.207-3.437-.625-3.438-1.457-5.156-4.113-5.156-7.97 0-1.25.26-2.445.78-3.593 1.563-3.332 4.167-5 7.813-5 1.146 0 2.344.262 3.594.78 3.23 1.563 4.847 4.17 4.847 7.813-.002 1.25-.262 2.45-.783 3.595zM449.895 35.75c9.688 6.355 14.53 16.094 14.53 29.22 0 9.687-3.02 17.76-9.06 24.218-6.563 7.086-14.848 10.625-24.848 10.625-7.084 0-13.543-1.978-19.375-5.938-9.584-6.562-14.375-16.406-14.375-29.53 0-9.48 3.072-17.396 9.222-23.75 6.665-6.876 15-10.313 25-10.313 6.873 0 13.174 1.823 18.905 5.468zm-38.75 41.406c2.708 12.5 9.322 18.75 19.847 18.75 1.98 0 3.903-.26 5.778-.78 9.582-3.02 14.375-13.282 14.375-30.782 0-3.02-.153-5.78-.47-8.28-1.874-14.583-8.593-21.876-20.155-21.876-2.5 0-4.896.418-7.188 1.25-8.854 3.543-13.28 13.387-13.28 29.53 0 4.48.363 8.544 1.093 12.188zM507.395 94.5c1.562.21 2.347 1.46 2.347 3.75h-34.375v-3.906c3.54 0 6.094-.26 7.653-.78 2.707-.94 4.062-3.802 4.062-8.595V35.75h-11.72v-3.906h22.654l.625 15.625c1.147-2.916 2.657-5.572 4.532-7.97 5-6.145 11.354-9.22 19.062-9.22 3.854 0 7.444.992 10.778 2.97 7.188 4.48 10.78 11.93 10.78 22.344v38.75h7.813c.625 0 1.145.055 1.562.156 1.562.21 2.344 1.46 2.344 3.75h-35.15v-3.906c3.54 0 6.094-.26 7.654-.78 2.706-.94 4.062-3.802 4.062-8.595V54.03c0-3.02-.47-5.728-1.406-8.124-2.29-5.938-6.61-8.906-12.965-8.906-2.918 0-5.78.887-8.594 2.656-6.56 4.27-10 11.25-10.31 20.938v33.75h7.03c.627 0 1.147.052 1.565.156z" opacity=".6" fill="#EDEDED"/>
</svg>
