<svg xmlns="http://www.w3.org/2000/svg" width="600" height="110" viewBox="0 0 600 110">
    <path opacity=".6" fill="#EDEDED" d="M594.297 90c-.625 1.458-1.354 2.917-2.188 4.375-5.313 8.125-13.6 12.188-24.85 12.188-7.083 0-13.384-1.82-18.9-5.47-9.272-6.25-13.907-15.832-13.907-28.75 0-7.082 1.46-13.437 4.375-19.06 5.625-10.834 14.947-16.25 27.97-16.25 6.665 0 12.552 1.51 17.655 4.53 7.188 4.167 10.78 9.792 10.78 16.875 0 3.854-1.405 6.823-4.222 8.906-3.645 2.604-11.817 3.803-24.526 3.594l-18.75-.312c.104 4.375.568 8.386 1.402 12.03 2.812 13.022 9.688 19.53 20.625 19.53.94 0 1.933-.054 2.974-.154 8.125-1.042 14.01-5.52 17.652-13.438l3.91 1.406zM567.11 40.938c-2.71 0-5.265.625-7.657 1.875-7.29 3.646-11.197 11.458-11.72 23.438l16.563.47c4.79.104 8.49-.104 11.094-.625 5-1.146 7.5-4.323 7.5-9.53 0-2.292-.416-4.424-1.25-6.403-2.396-6.15-7.24-9.224-14.53-9.224zm-47.032 60.156h-8.438V3.438h-23.438v3.906h11.72V91.72c0 4.79-1.355 7.655-4.063 8.593-1.563.52-4.116.78-7.657.78V105h35.78c0-2.292-.78-3.542-2.347-3.75-.41-.104-.933-.156-1.558-.156zm-45.156 0h-7.812v-62.5h-24.53V42.5h12.81v33.75c0 9.375-3.276 16.25-9.843 20.625-2.916 1.98-5.938 2.97-9.062 2.97-8.542 0-13.49-4.376-14.848-13.126-.21-1.46-.312-3.022-.312-4.69V38.595h-23.75V42.5h12.03v37.188c.104 17.812 7.554 26.77 22.345 26.875 7.812 0 14.22-3.177 19.22-9.527 1.874-2.396 3.384-5.055 4.53-7.973L456.797 105h22.03c0-2.292-.78-3.542-2.343-3.75-.416-.104-.937-.156-1.562-.156zM328.36 71.562c0 4.896.52 9.27 1.56 13.125 2.605 10.416 8.18 15.625 16.72 15.625 4.272 0 8.072-1.515 11.406-4.53 6.25-5.626 9.375-14.69 9.375-27.19 0-5.937-.884-11.093-2.654-15.468-3.23-8.125-8.646-12.188-16.25-12.188-3.02 0-5.778.677-8.278 2.03-7.922 4.378-11.88 13.91-11.88 28.596zm40 33.438l-1.25-16.562c-5.105 11.875-13.335 17.918-24.69 18.125-5.52 0-10.57-1.61-15.154-4.844-8.125-5.94-12.188-15.364-12.188-28.282 0-7.812 1.77-14.844 5.312-21.094 5.834-10.208 14.48-15.312 25.938-15.312 8.646 0 15.52 2.812 20.625 8.438V7.344h-14.845V3.438h26.562l.312 97.656h7.812c.625 0 1.146.053 1.562.156 1.562.208 2.345 1.458 2.345 3.75h-22.34zM302.42 90c-.625 1.458-1.354 2.917-2.188 4.375-5.312 8.125-13.594 12.188-24.844 12.188-7.083 0-13.385-1.82-18.906-5.47-9.27-6.25-13.906-15.832-13.906-28.75 0-7.082 1.458-13.437 4.375-19.06 5.625-10.834 14.948-16.25 27.97-16.25 6.666 0 12.55 1.51 17.655 4.53 7.188 4.167 10.78 9.792 10.78 16.875 0 3.854-1.405 6.823-4.22 8.906-3.647 2.604-11.824 3.803-24.532 3.594l-18.75-.312c.104 4.375.573 8.386 1.406 12.03 2.812 13.022 9.688 19.53 20.625 19.53.938 0 1.927-.054 2.97-.154 8.124-1.042 14.01-5.52 17.655-13.438l3.91 1.406zm-27.188-49.062c-2.708 0-5.26.625-7.656 1.875-7.292 3.646-11.198 11.458-11.72 23.438l16.563.47c4.793.104 8.49-.104 11.095-.625 5-1.146 7.5-4.323 7.5-9.53 0-2.292-.417-4.424-1.25-6.403-2.395-6.15-7.24-9.224-14.53-9.224zm-91.875 60.156h-7.813v-33.75c0-9.48 3.28-16.354 9.844-20.625 2.71-1.772 5.522-2.657 8.44-2.657 6.353 0 10.78 2.97 13.28 8.906 1.146 2.81 1.72 5.937 1.72 9.374V91.72c0 4.79-1.147 7.655-3.44 8.593-1.457.52-3.957.78-7.5.78V105h34.376c0-2.292-.78-3.542-2.344-3.75-.417-.104-.938-.156-1.562-.156h-7.812v-38.75c0-11.354-3.75-19.062-11.25-23.125-2.917-1.46-6.042-2.19-9.375-2.19-7.708 0-14.167 2.813-19.375 8.44-2.188 2.395-3.854 5.103-5 8.124V3.438H152.11v3.906h11.72V91.72c0 4.79-1.355 7.655-4.063 8.593-1.562.52-4.115.78-7.656.78V105h35.157c0-2.292-.78-3.542-2.344-3.75-.418-.104-.94-.156-1.564-.156zM85.39 72.5c0 12.604 4.636 22.03 13.907 28.28 5.73 3.855 12.24 5.782 19.53 5.782 10.834 0 19.01-3.806 24.532-11.406 1.25-1.77 2.24-3.542 2.968-5.312l-4.062-1.406c-3.854 8.23-10.208 12.765-19.062 13.598-.833.104-1.667.152-2.5.152-7.396 0-13.177-3.694-17.344-11.094-3.125-5.625-4.688-12.292-4.688-20 0-13.646 3.594-22.76 10.78-27.344 3.022-1.875 6.355-2.812 10-2.812 5.626 0 9.01 2.188 10.157 6.562.207.833.468 2.136.78 3.906.625 4.167 1.77 6.77 3.438 7.812 1.042.52 2.188.833 3.438.938 3.542.208 5.78-1.25 6.72-4.375.207-.728.31-1.405.31-2.03 0-5.312-3.384-9.688-10.155-13.125-4.79-2.396-10-3.594-15.624-3.594-13.958 0-23.698 5.678-29.22 17.032-2.603 5.417-3.905 11.563-3.905 18.438zM71.33 80.47c0-9.272-5-16.72-15-22.345-1.98-1.042-8.073-3.802-18.28-8.28-9.272-3.96-15.105-8.022-17.5-12.19-1.25-2.29-1.876-4.738-1.876-7.343 0-6.98 3.385-11.823 10.156-14.53 2.917-1.147 6.146-1.72 9.688-1.72 8.75 0 15.417 2.97 20 8.906 3.02 4.062 4.48 9.01 4.375 14.844h4.69V10.47c-2.5 0-3.96.78-4.376 2.343-.208.73-.312 1.72-.312 2.97-7.396-4.063-15.73-6.095-25-6.095-11.25 0-20 3.125-26.25 9.375-4.167 4.375-6.25 9.48-6.25 15.312 0 8.75 4.896 15.886 14.688 21.406 1.77.94 7.708 3.595 17.812 7.97 9.375 4.167 15.312 8.386 17.812 12.656 1.354 2.396 2.03 5 2.03 7.812 0 7.292-3.54 12.552-10.624 15.78-3.333 1.46-7.03 2.19-11.094 2.19-15.938-.21-24.792-9.95-26.562-29.224H4.766v32.348c2.5 0 3.958-.73 4.375-2.188.21-.833.313-2.345.313-4.53 8.02 5.31 17.135 7.97 27.344 7.97 11.98 0 21.25-3.23 27.812-9.69 4.478-4.582 6.718-10.05 6.718-16.405z"/>
</svg>
