<?xml version="1.0" encoding="utf-8"?>
<!-- Generator: Adobe Illustrator 26.1.0, SVG Export Plug-In . SVG Version: 6.00 Build 0)  -->
<svg version="1.1" id="Layer_1" xmlns="http://www.w3.org/2000/svg" xmlns:xlink="http://www.w3.org/1999/xlink" x="0px" y="0px"
	 viewBox="0 0 479.5 479.5" style="enable-background:new 0 0 479.5 479.5;" xml:space="preserve">
<style type="text/css">
	.st0{clip-path:url(#SVGID_00000059296042489166848160000016109401268035308220_);fill:none;}
	.st1{opacity:0.5;clip-path:url(#SVGID_00000059296042489166848160000016109401268035308220_);}
	.st2{fill:#E6BEAE;}
	.st3{clip-path:url(#SVGID_00000059296042489166848160000016109401268035308220_);}
	.st4{fill:#E7D8C9;}
</style>
<g>
	<defs>
		<rect id="SVGID_1_" width="479.5" height="479.5"/>
	</defs>
	<clipPath id="SVGID_00000070799489999233847540000015146985079560229816_">
		<use xlink:href="#SVGID_1_"  style="overflow:visible;"/>
	</clipPath>
	
		<rect style="clip-path:url(#SVGID_00000070799489999233847540000015146985079560229816_);fill:none;" width="479.5" height="479.5"/>
	<g style="opacity:0.5;clip-path:url(#SVGID_00000070799489999233847540000015146985079560229816_);">
		<path class="st2" d="M298.4,247.5c-5.7,8.2-13.4,15.4-25,15.4c-6.5,0-15.1-3.5-22.6-10.1c-7.9,6.2-19.4,10.9-31.2,10.9
			c-22.5,0-38.4-18.6-38.4-34c0-17.1,8.9-29.3,31.5-39.2c-4.9-12.2-7.2-20.1-7.2-27.5c0-14.8,10.1-25.3,26.8-25.3
			c13.4,0,22.9,9.9,22.9,22.3c0,9.9-4,20.1-32,30.7c9.2,20.5,20.6,39.1,31,52.1c14.1-16.1,16.2-36.9,16.2-39.2
			c0-6.2-3.8-8.9-13.6-8.9v-4.2h36.2v4.2c-9.7,0-13.7,3.7-15.6,11.4c-3.5,14.2-10.2,30.2-20.1,40.4c4.7,4.7,10.2,8.1,15.9,8.1
			c10.1,0,16.8-1.8,22.9-9.7L298.4,247.5z M214.5,195.1c-15.3,5.5-22.1,17.1-22.1,27.7c0,18.6,14.2,33.5,33.2,33.5
			c8.4,0,15.9-2.3,21.8-7C235.5,236.1,222.9,214.5,214.5,195.1z M247.4,159.4c0-8.5-6.9-16.8-15.3-16.8c-10.2,0-16.4,8.2-16.4,16.6
			c0,5,1.7,17.3,5.7,27.5C242.9,178.7,247.4,168.9,247.4,159.4z"/>
	</g>
	
		<rect style="clip-path:url(#SVGID_00000070799489999233847540000015146985079560229816_);fill:none;" width="479.5" height="479.5"/>
	<g style="clip-path:url(#SVGID_00000070799489999233847540000015146985079560229816_);">
		<path class="st4" d="M40.2,174.4c-3.1,0-6.2-0.2-9.4-0.6c-8.4-1.1-14.6-3.6-18.6-7.5c-4-4-5.9-8.2-5.9-12.8c0-5,2.2-9.4,6.5-13.5
			c4.4-4,10.6-6,18.6-6c5.4,0,11.2,1.1,17.5,3.2c2.7,0.8,6,2.2,9.9,4.1c4,1.9,7.9,3.9,11.8,5.9s6.9,3.6,9,4.8
			c5.9-5.8,11.4-12.4,16.4-20c5-7.6,9.8-15.7,14.4-24.3s9.2-17.4,13.9-26.2s9.6-17.5,14.8-25.8c5.2-8.4,10.9-16,17.2-23
			c-7-4.3-14.6-7.6-23-9.9s-17-3.5-25.8-3.5c-3.4,0-6.7,0.2-10.2,0.6s-6.9,0.9-10.4,1.6c-12.5,2.7-23,6.9-31.6,12.8
			c-8.6,5.8-15,12.2-19.4,19.1S29.4,66.8,29.4,73c0,4.6,1.2,8.6,3.6,12.1s6.1,6,11.1,7.4c3.6,1.1,6.8,1.6,9.4,1.6
			c4.4,0,8.3-0.9,11.6-2.7c3.3-1.8,6.1-4.1,8.3-6.7c2.3-2.7,4-5.3,5.1-7.8s1.8-4.6,1.9-6.2c0-0.9,0.6-1.4,1.8-1.4
			c1.9,0,2.6,1.1,2.2,3.4c-0.7,5.4-2.7,10-6,14c-3.4,4-7.4,7-12.1,9.2s-9.5,3.3-14.5,3.3c-3.2,0-6.6-0.5-10-1.6
			c-6.2-2.1-11.4-5.9-15.6-11.2C22,81,19.9,74.7,19.9,67.5c0-7.1,2.4-14.2,7.1-21.4c4.8-7.2,12.4-13.6,22.8-19.4
			c10.5-5.8,24.1-9.8,41-12.3c5.6-0.8,11.3-1.2,17.1-1.2c9.5,0,18.9,1.1,28,3.4c9.2,2.3,17.9,5.6,26,9.8l5-5.8
			c1.2-1.1,2.9-2.4,5.1-4s4.5-3.1,6.7-4.6c2.3-1.5,4-2.4,5-2.8c1.7-0.7,3.1-1,4.2-1c0.8,0,1.2,0.2,1.2,0.6c0,0.9-1.1,2.1-3.2,3.4
			c-1.3,0.9-2.5,2-3.6,3.1s-1.9,2-2.4,2.7c-2,2.8-3.6,5.1-4.7,6.8c-1.1,1.7-2.6,4-4.5,6.8c12.3,8.2,22.4,18.7,30.2,31.7
			c7.8,12.9,11.7,27.7,11.7,44.3c0,3.5-0.2,7-0.6,10.7c-0.8,8.6-3.2,16.4-7,23.3c-3.9,7-8.9,12.9-15.2,17.7
			c-6.2,4.8-13.1,8.5-20.7,11.2c-7.6,2.6-15.5,3.9-23.8,3.9c-3.1,0-6.2-0.2-9.2-0.6c-13.1-1.6-24-3.7-32.5-6.3s-16-5.3-22.4-8.1
			C69,169.4,55.4,174.4,40.2,174.4z M35.8,168.2c7.4,0.4,14.3-0.5,20.7-2.7s12.4-5.3,17.9-9.3c-4.8-2.3-9.7-4.7-14.7-7.1
			c-5-2.5-10.2-4.7-15.7-6.7c-3.6-1.2-6.8-1.8-9.6-1.8c-5,0-8.7,1.4-11.3,4.1c-2.5,2.7-3.8,5.8-3.8,9.1c0,3.6,1.4,6.9,4.2,9.7
			C26.4,166.4,30.5,167.9,35.8,168.2z M141.9,168.4c10.7,0,20.2-2.3,28.4-6.9c8.2-4.6,14.9-10.7,20-18.2s8.1-15.6,9-24.3
			c0.4-3.2,0.6-6.4,0.6-9.6c0-14.6-3.1-27.9-9.3-39.9S176.2,47.4,166,39.2c-5.9,9.2-12,19-18.2,29.3S135.3,89,129,99.2
			c-6.3,10.1-12.4,19.5-18.4,28c-6,8.6-11.6,15.7-16.8,21.3c-0.9,0.8-2.1,2-3.5,3.5s-2.8,2.8-4.3,3.7c6.3,2.8,13.5,5.4,21.5,7.6
			c8,2.3,17.5,3.9,28.3,4.8c1.2,0.1,2.2,0.2,3.1,0.2C139.9,168.4,140.9,168.4,141.9,168.4z"/>
		<path class="st4" d="M228,166.6c-5,0-8.4-1.4-10.5-4.3c-2-2.9-3-6.2-3-9.9c0-2,0.2-4.1,0.7-6.1c0.5-2.1,1-4,1.7-5.7l13.5-34.4
			c0.4-1.1,0.6-2,0.6-2.8c0-1.3-0.3-2.5-1-3.5s-1.1-1.7-1.4-2.1l11.1-0.4c2-0.1,3.4,0.1,4.3,0.7c0.9,0.6,1.3,1.3,1.3,2.1
			c0,0.8-0.5,2.3-1.4,4.4l-16.7,39.2c-1.5,3.4-2.3,5.3-2.4,5.8c-0.4,2-0.7,3.3-0.8,3.8s-0.2,0.9-0.2,1s0,0.7,0,1.6
			c0,1.7,0.4,3.2,1.3,4.4c0.9,1.2,2.4,1.8,4.5,1.8c1.3,0,2.9-0.4,4.6-1.2c1.7-0.8,3-1.6,3.8-2.4c3.3-3.5,6.7-8.1,9.9-13.8
			c3.3-5.7,6.3-11.4,9.1-17c0.5-1.3,1.2-2,2-2c0.7,0,1,0.5,1,1.4c0,0.5-0.2,1.3-0.6,2.4c-1.3,2.8-3,6.3-5,10.5s-4.4,8.3-7.1,12.4
			c-2.7,4.1-5.7,7.5-8.9,10.2C235.2,165.3,231.7,166.6,228,166.6z M244.3,85c-2,0-3.7-0.7-4.9-2.1c-1.3-1.4-1.9-3.1-1.9-5.1
			c0-2.5,1-4.8,3-6.6c2-1.9,4.2-2.8,6.6-2.8c2.1,0,3.9,0.7,5.2,2s2,2.9,2,4.8c0,2.5-1,4.8-3,6.8C249.3,84,246.9,85,244.3,85z"/>
		<path class="st4" d="M238,168.2c4.8-9.8,9.5-19.5,14-29c4.5-9.6,9.1-18.7,13.8-27.4c2.7-4.8,4.9-8.2,6.7-10.2
			c1.8-1.9,4.3-2.9,7.3-2.9c1.1,0,2.2,0.2,3.4,0.5c1.2,0.3,2.4,0.5,3.6,0.5c0.8,0,1.4-0.1,1.8-0.2c-1.9,1.1-4.3,3.7-7.2,7.9
			c-2.9,4.2-6,9.1-9,14.6c-3.1,5.5-5.8,10.7-8.2,15.5c2.5-3.1,5.2-6.2,7.9-9.2c2.7-3.1,5.8-6,9.1-8.8c3.2-2.8,7.1-5.7,11.6-8.7
			s8.9-5.5,13.2-7.5c4.3-2,7.7-3,10.3-3c0.9,0,1.6,0.1,2,0.2c-2.9,5.2-5.5,9.9-7.7,14.2c-2.2,4.2-4.5,8.7-6.7,13.5
			c-2.3,4.8-4.3,9.3-6.1,13.7c-1.8,4.4-3,8-3.5,11c-0.4,1.7-0.6,3.4-0.6,4.8c0,2.1,0.4,3.6,1.2,4.2c0.8,0.7,1.7,1,2.6,1
			c2.5,0,5.2-1.4,8-4.1c2.8-2.7,5.5-6.1,8.1-10.2s5-7.9,7-11.8c2.1-3.8,3.6-6.7,4.5-8.7c0.5-1.1,0.9-1.7,1.2-1.9
			c0.3-0.2,0.7-0.3,1.2-0.3c0.8,0,1.2,0.5,1.2,1.6c0,0.7-0.2,1.4-0.6,2.2c-1.6,3.1-3.5,6.8-5.7,11.1s-4.7,8.5-7.5,12.6
			s-5.9,7.5-9.2,10.3c-3.4,2.7-7,4.1-10.9,4.1c-2.7,0-5.5-0.9-8.3-2.8c-2.9-1.9-4.3-5.4-4.3-10.5c0-1.5,0.1-3,0.4-4.7
			s0.7-3.5,1.4-5.5c1.1-2.7,2.3-5.6,3.8-8.6c1.5-3.1,3.9-7.3,7.2-12.7c0.9-1.5,1.5-2.6,1.7-3.4s0.3-1.5,0.3-2c0-1.6-0.7-2.4-2.2-2.4
			c-1.2,0-3,0.7-5.3,2s-5.3,3.7-8.7,7c-3.4,3.2-7.3,7.8-12,13.7c-4.6,5.9-9.9,14.6-16,26.1c-0.9,1.7-2,2.7-3.1,2.8s-2.7,0.3-4.7,0.4
			c-1.3,0.1-2.6,0.2-3.8,0.3C239.8,167.2,238.8,167.5,238,168.2z"/>
		<path class="st4" d="M369.1,166.6c-3.6,0-6.6-1.8-9-5.4c-0.7-1.1-1.3-2.5-1.8-4.2s-0.8-3.7-0.8-5.8c0-1.2,0.1-2.4,0.2-3.7
			s0.4-2.6,0.8-3.9c-1.9,2.9-4.1,6.2-6.5,9.7c-2.5,3.6-5.3,6.6-8.4,9.2c-3.2,2.6-6.7,3.9-10.6,3.9c-1.3,0-2.7-0.2-4.2-0.6
			c-3.6-1.1-6.2-2.9-7.7-5.6c-1.5-2.7-2.3-5.9-2.3-9.6c0-4.2,0.8-8.7,2.5-13.7s3.8-9.8,6.4-14.5s5.3-8.7,8.1-12.1
			c4-4.7,8.6-8.4,13.9-11.3c5.2-2.8,10.5-4.2,15.9-4.2c4.8,0,9.4,1.3,13.7,3.8c2-3.8,4.2-7.9,6.4-12.6c2.3-4.6,4.6-9.2,6.8-13.8
			c2.3-4.6,4.3-8.7,6-12.6c1.7-3.8,3.1-6.7,4-8.7c2-4.7,3.9-7.7,5.7-8.9c1.8-1.3,4-1.9,6.5-1.9c1.5,0,3.1,0.2,4.9,0.5
			s3.6,0.4,5.3,0.3c-0.8,0.8-2.4,3.1-4.9,6.9c-2.5,3.8-5.4,8.7-8.7,14.6c-3.4,5.9-6.9,12.4-10.8,19.4c-3.8,7-7.6,14.1-11.3,21.3
			c-3.7,7.2-7.1,13.9-10.3,20.3c-3.2,6.4-5.7,11.8-7.5,16.4c-0.5,1.1-1.3,3.3-2.3,6.5c-1,3.3-1.5,6.1-1.5,8.5c0,1.7,0.4,3.3,1.2,4.5
			c0.8,1.3,2.1,1.9,4,1.9c2.5,0,5.1-1.3,7.7-3.9c2.6-2.6,5.1-5.8,7.5-9.6s4.6-7.6,6.4-11.3c1.9-3.7,3.3-6.6,4.2-8.7
			c0.7-1.5,1.5-2.2,2.4-2.2c0.8,0,1.2,0.6,1.2,1.8c0,0.1,0,0.4,0,0.7c0,0.3-0.1,0.7-0.4,1.1c-1.2,2.8-2.8,6.3-4.9,10.5
			s-4.5,8.3-7.3,12.5s-6,7.6-9.4,10.4C376.8,165.2,373.1,166.6,369.1,166.6z M334.3,160.6c1.9,0,4.2-1,7-3.1s5.8-5.4,9-9.9
			c3.8-5.4,8-12.1,12.9-20.1c4.8-8,9.6-16.5,14.3-25.5c-1.7-1.6-3.8-2.4-6-2.4c-3.8,0-7.9,1.7-12.6,5.2c-4.6,3.5-9.1,7.9-13.5,13.3
			s-8,10.8-11,16.3c-2,3.8-3.5,7.2-4.3,10.3c-0.9,3.1-1.3,5.8-1.3,8C328.9,157.9,330.7,160.6,334.3,160.6z"/>
		<path class="st4" d="M442.2,167.2c-1.5,0.1-3.1-0.2-5-1s-3.5-2.3-4.9-4.4c-1.4-2.1-2.1-5.2-2.1-9c0-3.2,0.6-7.1,1.8-11.7
			c-1.6,2.5-3.7,5.7-6.2,9.3c-2.5,3.7-5.3,6.9-8.2,9.7c-2.5,2.4-5,4.2-7.2,5.2c-2.3,1.1-4.4,1.6-6.2,1.6c-3.5,0-6.3-1.6-8.4-4.7
			c-2.1-3.1-3.2-7.3-3.2-12.4c0-5.4,1.3-11.5,4-18.3s7-13.9,13.1-21.3c3.9-4.7,8.6-8.5,14.2-11.4s11-4.3,16.4-4.3
			c3.1,0,6,0.5,8.8,1.5s5.3,2.6,7.4,4.9c0.9,0.9,1.4,2,1.4,3.2c0,0.8-0.3,1.5-1,2s-1.5,0.7-2.6,0.4c-1.5-4.7-4.6-7-9.4-7
			c-2.3,0-4.9,0.7-7.8,2.2c-4.6,2.4-9.3,6.4-14.2,11.9c-4.9,5.5-9.1,11.2-12.8,17.1c-0.5,0.8-1.4,2.3-2.5,4.6s-2.2,4.8-3.3,7.6
			c-1.1,2.8-1.8,5.6-2.2,8.2c-0.1,0.8-0.2,1.4-0.2,1.7s0,0.8,0,1.5c0,4.4,1.7,6.6,5,6.6c4,0,8.6-2.9,13.7-8.8
			c3.5-4.3,6.6-8.8,9.4-13.5s5.7-9.7,8.6-15.1c2-3.6,3.9-6.6,5.6-9s4.2-3.6,7.4-3.6c1.5,0,2.9,0.2,4.4,0.6s3,0.5,4.6,0.2
			c-1.1,1.1-2.5,3.1-4.3,6s-3.7,6.3-5.7,10c-2,3.8-3.8,7.6-5.4,11.5s-2.7,7.2-3.4,10.1c-0.1,0.8-0.3,1.9-0.5,3.4s-0.3,2.5-0.3,3.2
			c0,3.8,1.1,5.6,3.2,5.6s4.5-1.3,6.9-3.8c2.5-2.5,4.9-5.7,7.3-9.4s4.6-7.5,6.6-11.4c2-3.8,3.6-6.9,4.8-9.3c0.5-1.3,1.3-2,2.4-2
			c0.7,0,1,0.5,1,1.4c0,0.4-0.2,1.1-0.6,2.2c-1.6,3.4-3.6,7.1-5.8,11.4c-2.3,4.2-4.8,8.3-7.4,12.3c-2.7,4-5.5,7.2-8.3,9.8
			C448.1,165.5,445.2,166.9,442.2,167.2z"/>
	</g>
	<g style="clip-path:url(#SVGID_00000070799489999233847540000015146985079560229816_);">
		<path class="st4" d="M229,471.3c-1.2,0-1.4-0.9-0.7-2.7c0.7-1.8,1.4-3.5,2.1-4.9c1.2-2.4,1.8-6.2,1.8-11.3c0-4.4-0.8-9.2-2.4-14.3
			c-1.6-5.1-4.8-9.7-9.4-13.9c-6.4-5.9-13.7-10.6-21.7-14.1s-16.5-6.3-25.2-8.4c-8.8-2.1-17.5-4-26-5.6
			c-5.2,7.2-10.8,13.7-16.8,19.5s-12.3,10.2-19,13.3c-3.8,1.7-7.4,3-10.9,3.9s-6.8,1.3-9.8,1.3c-7.5,0-13.6-2-18.4-5.9
			c-4.8-4-7.1-8.6-7.1-14c0-5.1,2.3-10.1,6.9-15s12.3-8.9,23-12.2c4.3-1.2,9-2.1,14.3-2.7c5.2-0.6,10.7-0.9,16.3-0.9
			c3.5,0,6.9,0.1,10.4,0.3c3.4,0.2,6.6,0.6,9.5,1.3c3.9-5.9,7.5-12,10.9-18.4c3.3-6.4,6.8-13.3,10.5-20.8
			c-10.6,0.3-19.8-1.3-27.5-4.7c-7.8-3.4-13.8-8-18-13.8s-6.3-11.9-6.3-18.5c0-5.4,1.5-10.6,4.6-15.8c3.1-5.2,7.9-9.8,14.6-14.1
			c6.6-4.2,15.1-7.5,25.4-9.9c0.7-0.3,1.3-0.4,1.9-0.4s1.2,0,1.7,0c2,0,3,0.4,3,1.2c0,1.3-2.1,2.3-6.4,2.8c-7,0.8-13.1,3.3-18.4,7.4
			c-5.3,4.2-9.4,9.1-12.3,14.9c-2.9,5.8-4.3,11.6-4.3,17.5c0,5.1,1.2,9.8,3.6,14.3c2.4,4.4,6.2,8,11.5,10.8c5.2,2.7,12,4.1,20.3,4.1
			c2.9,0,6.1-0.2,9.4-0.6c0.5-1.1,1.4-3.2,2.7-6.5s2.7-7,4.3-11.2s3.2-8.2,4.7-12.1s3.3-8.4,5.3-13.7c6.2-15.4,12.5-27.5,19-36.3
			c6.5-8.8,12.8-15,18.9-18.6c6.1-3.6,11.6-5.4,16.4-5.4c5.2,0,9.5,1.5,13,4.6c3.4,3.1,5.3,6.6,5.5,10.5c0.1,1.2,0.2,2.1,0.2,2.6
			s0,1.2,0,2c0,7.9-1.6,15.8-4.7,23.7c-3.2,7.9-7.5,15.4-13.1,22.5s-11.9,13.5-19.1,19.3c-7.2,5.8-14.8,10.6-22.9,14.5
			c-8.1,3.9-16.3,6.6-24.6,8c-2,4-3.8,7.6-5.3,10.8c-1.5,3.1-3.3,6.5-5.1,10.2c-1.9,3.6-4.4,8.2-7.4,13.9c-0.9,1.7-1.6,3-2.1,3.7
			s-1.2,1.8-2.1,3.3c6.7,1.6,14,3.9,21.9,6.7c7.9,2.9,15.7,6.3,23.4,10.3s14.6,8.3,20.6,13c7.5,5.8,12.8,12.3,16,19.5
			c3.1,7.2,4.7,13.6,4.7,19.1c0,3.9-0.6,6.8-1.8,8.8c-1.7,2.9-3.5,4.8-5.2,5.6C231.3,470.8,229.9,471.3,229,471.3z M88.1,428.2
			c2.9,0,6.1-0.4,9.5-1.2c3.4-0.8,7-2.1,10.8-3.8c11.3-5.5,21.6-15,31.2-28.5c-3.1-0.7-6.3-1.2-9.6-1.5c-3.4-0.3-6.8-0.5-10.3-0.5
			c-3.6,0-7.3,0.2-11.2,0.6c-3.8,0.4-7.5,1.1-11.2,2.2c-9,2.4-15.8,5.5-20.6,9.2c-4.8,3.8-7.1,7.6-7.1,11.5c0,3.3,1.7,6.2,5,8.5
			C78,427.1,82.5,428.2,88.1,428.2z M178.3,339.6c9.1-2,18-5.7,26.7-11s16.5-11.7,23.5-19.3c7-7.6,12.5-15.8,16.7-24.7
			c4.2-8.9,6.2-18,6.2-27.2c0-2.3-0.6-4.2-1.8-5.6c-1.2-1.5-2.9-2.2-5.2-2.2c-3.1,0-7,1.7-11.9,5.1s-10.3,9.1-16.5,17.1
			s-12.8,18.9-19.9,32.9c-3.6,7-6.8,13.1-9.5,18.4C183.9,328.3,181.2,333.8,178.3,339.6z"/>
		<path class="st4" d="M227.8,410.6c-5,0-8.4-1.4-10.5-4.3c-2-2.9-3-6.2-3-10c0-2,0.2-4.1,0.7-6.1c0.5-2.1,1-4,1.7-5.7l13.5-34.4
			c0.4-1.1,0.6-2,0.6-2.8c0-1.3-0.3-2.5-1-3.5s-1.1-1.7-1.4-2.1l11.1-0.4c2-0.1,3.4,0.1,4.3,0.7c0.9,0.6,1.3,1.3,1.3,2.1
			s-0.5,2.3-1.4,4.4L227,387.6c-1.5,3.4-2.3,5.3-2.4,5.8c-0.4,2-0.7,3.3-0.8,3.8s-0.2,0.9-0.2,1s0,0.7,0,1.6c0,1.7,0.4,3.2,1.3,4.4
			c0.9,1.2,2.4,1.8,4.5,1.8c1.3,0,2.9-0.4,4.6-1.2c1.7-0.8,3-1.6,3.8-2.4c3.3-3.5,6.7-8.1,9.9-13.8c3.3-5.7,6.3-11.4,9.1-17
			c0.5-1.3,1.2-2,2-2c0.7,0,1,0.5,1,1.4c0,0.5-0.2,1.3-0.6,2.4c-1.3,2.8-3,6.3-5,10.5s-4.4,8.3-7.1,12.4c-2.7,4.1-5.7,7.5-8.9,10.2
			C235,409.2,231.5,410.6,227.8,410.6z M244.1,328.9c-2,0-3.7-0.7-4.9-2.1c-1.3-1.4-1.9-3.1-1.9-5.1c0-2.5,1-4.8,3-6.6
			c2-1.9,4.2-2.8,6.6-2.8c2.1,0,3.9,0.7,5.2,2s2,2.9,2,4.8c0,2.5-1,4.8-3,6.8C249.1,327.9,246.7,328.9,244.1,328.9z"/>
		<path class="st4" d="M267,411.2c-5.6,0-9.4-1.5-11.5-4.5c-2-3-3-6.6-3-10.8c0-4.3,0.6-8.7,1.8-13.3c1.2-4.6,2.3-8.4,3.2-11.5
			c2.1-7.5,4.9-15.5,8.1-24c3.3-8.5,6.9-16.9,10.9-25.1s7.9-15.6,11.8-22.2c3.1-5.2,6.4-9.1,9.9-11.8c3.5-2.6,6.7-3.9,9.3-3.9
			c2.1,0,3.9,0.8,5.1,2.3c1.3,1.5,1.9,3.9,1.9,6.9c0,2.1-0.4,4.7-1.1,7.6s-2,6.3-3.7,10.1c-4.7,10.5-10.3,20.9-16.8,31.4
			s-14.7,20.2-24.6,29.3c-0.5,1.7-1.2,3.8-2.1,6.1c-0.9,2.3-1.6,4.7-2.3,7.1c-0.8,3.6-1.2,6.7-1.2,9.2c0,4.2,0.8,7.3,2.5,9.3
			c1.7,2.1,3.7,3.1,6.1,3.1c2.1,0,4.4-0.8,6.8-2.3s4.7-3.8,6.8-6.7c3.2-4.7,6.1-9.5,8.7-14.4s4.6-8.7,5.9-11.4
			c0.8-1.5,1.7-2.2,2.6-2.2c0.7,0,1,0.4,1,1.2c0,0.7-0.2,1.4-0.6,2.2c-1.2,2.7-2.8,6.1-4.7,10.4c-1.9,4.2-4.4,8.4-7.2,12.7
			c-2.9,4.2-6.3,7.8-10.3,10.7C276.6,409.7,272.1,411.2,267,411.2z M270,365.3c4.8-5,9.5-10.7,14.1-17.2s8.8-13.3,12.8-20.3
			c3.9-7,7.3-13.7,9.9-20c0.9-2,1.7-4.2,2.3-6.6s0.9-4.4,0.9-6c0-1.9-0.5-2.8-1.4-2.8c-0.5,0-1.3,0.5-2.4,1.5s-2.5,2.7-4.2,5.1
			c-2.5,3.4-5.3,7.9-8.3,13.7c-3,5.8-6.1,11.9-9.1,18.5c-3.1,6.6-5.9,12.9-8.4,19C273.5,356.3,271.5,361.3,270,365.3z"/>
		<path class="st4" d="M309.8,411.2c-5.6,0-9.4-1.5-11.5-4.5c-2-3-3-6.6-3-10.8c0-4.3,0.6-8.7,1.8-13.3c1.2-4.6,2.3-8.4,3.2-11.5
			c2.1-7.5,4.9-15.5,8.1-24c3.3-8.5,6.9-16.9,10.9-25.1s7.9-15.6,11.8-22.2c3.1-5.2,6.4-9.1,9.9-11.8c3.5-2.6,6.7-3.9,9.3-3.9
			c2.1,0,3.9,0.8,5.1,2.3c1.3,1.5,1.9,3.9,1.9,6.9c0,2.1-0.4,4.7-1.1,7.6s-2,6.3-3.7,10.1c-4.7,10.5-10.3,20.9-16.8,31.4
			s-14.7,20.2-24.6,29.3c-0.5,1.7-1.2,3.8-2.1,6.1c-0.9,2.3-1.6,4.7-2.3,7.1c-0.8,3.6-1.2,6.7-1.2,9.2c0,4.2,0.8,7.3,2.5,9.3
			c1.7,2.1,3.7,3.1,6.1,3.1c2.1,0,4.4-0.8,6.8-2.3s4.7-3.8,6.8-6.7c3.2-4.7,6.1-9.5,8.7-14.4s4.6-8.7,5.9-11.4
			c0.8-1.5,1.7-2.2,2.6-2.2c0.7,0,1,0.4,1,1.2c0,0.7-0.2,1.4-0.6,2.2c-1.2,2.7-2.8,6.1-4.7,10.4c-1.9,4.2-4.4,8.4-7.2,12.7
			c-2.9,4.2-6.3,7.8-10.3,10.7C319.4,409.7,314.9,411.2,309.8,411.2z M312.8,365.3c4.8-5,9.5-10.7,14.1-17.2s8.8-13.3,12.8-20.3
			s7.3-13.7,9.9-20c0.9-2,1.7-4.2,2.3-6.6c0.6-2.4,0.9-4.4,0.9-6c0-1.9-0.5-2.8-1.4-2.8c-0.5,0-1.3,0.5-2.4,1.5s-2.5,2.7-4.2,5.1
			c-2.5,3.4-5.3,7.9-8.3,13.7c-3,5.8-6.1,11.9-9.1,18.5c-3.1,6.6-5.9,12.9-8.4,19C316.3,356.3,314.3,361.3,312.8,365.3z"/>
		<path class="st4" d="M352.2,410.6c-5.1,0-8.8-1.7-11.3-5.1s-3.6-7.6-3.6-12.6c0-6,1.4-12.3,4.2-18.9c2.7-6.2,6.1-11.8,10.3-16.9
			c4.2-5.1,8.6-9.2,13.5-12.4c4.8-3.1,9.5-4.7,14.1-4.7c5.1,0,8.8,1.7,11.3,5c2.4,3.4,3.6,7.6,3.6,12.7c0,6.2-1.4,12.5-4.2,18.9
			c-1.6,3.6-3.9,7.6-6.8,12s-6.3,8.3-10,12c0.8,1.5,1.9,2.7,3.4,3.7s3.5,1.5,6,1.5c3.2,0,6.3-1.3,9.1-4c2.9-2.7,5.5-5.9,7.9-9.7
			c2.4-3.8,4.6-7.7,6.4-11.6c1.9-3.9,3.4-7,4.6-9.4c0.4-0.8,1.1-1.2,2-1.2c0.5,0,0.9,0.2,1.2,0.7c0.3,0.5,0.2,1.2-0.2,2.1
			c-0.8,2-2.1,5-4,8.9c-1.9,4-4.2,8-6.8,12.3c-2.7,4.2-5.8,7.8-9.2,10.8c-3.5,2.9-7.4,4.4-11.7,4.4c-2.9,0-5.5-0.5-7.6-1.5
			s-3.9-2.2-5.2-3.7c-2.8,2.1-5.6,3.8-8.4,5C357.8,410,355,410.6,352.2,410.6z M355.2,406.1c3.6,0,7.5-1.7,11.7-5.2
			c-1.1-1.6-1.9-3.3-2.4-5s-0.8-3.3-0.8-4.8c0-2.4,0.6-4.5,1.7-6.2s2.9-2.6,5.3-2.6c1.7,0,3.2,0.6,4.3,1.9c1.1,1.3,1.7,2.7,1.7,4.3
			c0,0.4,0,0.8-0.1,1.1c-0.1,0.3-0.2,0.7-0.3,1.1c2.3-3.1,4.4-6.7,6.4-10.9c4.4-9.5,6.6-17.4,6.6-23.5c0-3.1-0.6-5.5-1.8-7.2
			c-1.2-1.7-3-2.6-5.4-2.6c-2.8,0-5.9,1.2-9.1,3.6c-3.3,2.4-6.4,5.6-9.4,9.6s-5.7,8.5-7.9,13.5c-2.1,4.6-3.9,8.9-5.1,13.2
			c-1.3,4.2-1.9,7.9-1.9,11c0,2.7,0.5,4.8,1.6,6.4C351.3,405.3,352.9,406.1,355.2,406.1z"/>
	</g>
</g>
</svg>
