<?xml version="1.0" encoding="utf-8"?>
<!-- Generator: Adobe Illustrator 26.1.0, SVG Export Plug-In . SVG Version: 6.00 Build 0)  -->
<svg version="1.1" id="Layer_1" xmlns="http://www.w3.org/2000/svg" xmlns:xlink="http://www.w3.org/1999/xlink" x="0px" y="0px"
	 viewBox="0 0 522 141" style="enable-background:new 0 0 522 141;" xml:space="preserve">
<style type="text/css">
	.st0{clip-path:url(#SVGID_00000147200996146296825270000011597980703263987380_);}
	.st1{fill:#E7D8C9;}
	.st2{opacity:0.5;}
	.st3{fill:#E6BEAE;}
</style>
<g>
	<defs>
		<rect id="SVGID_1_" width="522" height="141"/>
	</defs>
	<clipPath id="SVGID_00000171680845849016648260000004506593072760001963_">
		<use xlink:href="#SVGID_1_"  style="overflow:visible;"/>
	</clipPath>
	<g style="clip-path:url(#SVGID_00000171680845849016648260000004506593072760001963_);">
		<g>
			<path class="st1" d="M32.11,104.13c-1.62,0-3.28-0.11-4.97-0.32c-4.45-0.57-7.71-1.89-9.79-3.97c-2.08-2.08-3.12-4.32-3.12-6.72
				c0-2.61,1.15-4.97,3.44-7.09c2.29-2.12,5.56-3.17,9.79-3.17c2.82,0,5.89,0.57,9.21,1.69c1.41,0.42,3.16,1.15,5.24,2.17
				c2.08,1.02,4.14,2.06,6.19,3.12c2.05,1.06,3.63,1.91,4.76,2.54c3.1-3.03,5.98-6.54,8.63-10.53c2.65-3.99,5.17-8.26,7.57-12.81
				c2.4-4.55,4.83-9.15,7.3-13.81c2.47-4.66,5.06-9.19,7.78-13.6c2.72-4.41,5.73-8.45,9.05-12.12c-3.67-2.26-7.71-4-12.12-5.24
				c-4.41-1.23-8.94-1.85-13.6-1.85c-1.76,0-3.55,0.11-5.34,0.32c-1.8,0.21-3.62,0.49-5.45,0.85c-6.56,1.41-12.1,3.65-16.62,6.72
				c-4.52,3.07-7.92,6.42-10.21,10.05c-2.29,3.63-3.44,7.07-3.44,10.32c0,2.4,0.64,4.52,1.91,6.35c1.27,1.84,3.21,3.14,5.82,3.92
				c1.91,0.57,3.56,0.85,4.97,0.85c2.33,0,4.36-0.48,6.09-1.43c1.73-0.95,3.19-2.13,4.39-3.55c1.2-1.41,2.1-2.79,2.7-4.13
				c0.6-1.34,0.93-2.43,1.01-3.28c0-0.49,0.32-0.74,0.95-0.74c0.99,0,1.38,0.6,1.16,1.8c-0.35,2.82-1.41,5.27-3.18,7.36
				c-1.76,2.08-3.88,3.7-6.35,4.87c-2.47,1.16-5.01,1.75-7.62,1.75c-1.69,0-3.46-0.28-5.29-0.85c-3.25-1.13-5.98-3.09-8.2-5.87
				c-2.22-2.79-3.33-6.09-3.33-9.9c0-3.74,1.25-7.5,3.76-11.27c2.5-3.77,6.51-7.18,12.01-10.21c5.5-3.03,12.7-5.19,21.59-6.46
				c2.96-0.42,5.96-0.64,9-0.64c5.01,0,9.93,0.6,14.76,1.8c4.83,1.2,9.4,2.93,13.71,5.19l2.65-3.07c0.63-0.56,1.53-1.27,2.7-2.12
				c1.16-0.85,2.34-1.66,3.55-2.43c1.2-0.78,2.08-1.27,2.65-1.48c0.92-0.35,1.66-0.53,2.22-0.53c0.42,0,0.64,0.11,0.64,0.32
				c0,0.49-0.57,1.09-1.69,1.8c-0.71,0.49-1.34,1.04-1.91,1.64c-0.57,0.6-0.99,1.08-1.27,1.43c-1.06,1.48-1.89,2.68-2.49,3.6
				c-0.6,0.92-1.39,2.12-2.38,3.6c6.49,4.3,11.78,9.86,15.88,16.67c4.09,6.81,6.14,14.59,6.14,23.34c0,1.84-0.11,3.7-0.32,5.61
				c-0.42,4.52-1.66,8.61-3.7,12.28c-2.05,3.67-4.71,6.77-7.99,9.31c-3.28,2.54-6.92,4.5-10.9,5.87c-3.99,1.38-8.17,2.06-12.54,2.06
				c-1.62,0-3.25-0.11-4.87-0.32c-6.92-0.85-12.61-1.96-17.09-3.33c-4.48-1.38-8.41-2.8-11.8-4.29
				C47.28,101.49,40.08,104.13,32.11,104.13z M29.78,100.85c3.88,0.21,7.51-0.26,10.9-1.43s6.53-2.8,9.42-4.92
				c-2.54-1.2-5.12-2.45-7.73-3.76c-2.61-1.3-5.36-2.49-8.26-3.54c-1.9-0.64-3.6-0.95-5.08-0.95c-2.61,0-4.59,0.72-5.93,2.17
				c-1.34,1.45-2.01,3.05-2.01,4.82c0,1.91,0.74,3.62,2.22,5.13C24.8,99.88,26.96,100.71,29.78,100.85z M85.66,100.96
				c5.64,0,10.64-1.22,14.98-3.65c4.34-2.43,7.85-5.62,10.53-9.58c2.68-3.95,4.27-8.22,4.76-12.81c0.21-1.69,0.32-3.39,0.32-5.08
				c0-7.69-1.64-14.69-4.92-21.01c-3.28-6.31-7.6-11.62-12.96-15.93c-3.11,4.87-6.3,10.02-9.58,15.45
				c-3.28,5.43-6.58,10.81-9.9,16.14c-3.32,5.33-6.55,10.25-9.68,14.76c-3.14,4.52-6.09,8.26-8.84,11.22
				c-0.49,0.42-1.11,1.04-1.85,1.85c-0.74,0.81-1.5,1.46-2.28,1.96c3.32,1.48,7.09,2.82,11.32,4.02c4.23,1.2,9.21,2.05,14.92,2.54
				c0.64,0.07,1.18,0.11,1.64,0.11C84.58,100.96,85.09,100.96,85.66,100.96z"/>
			<path class="st1" d="M130.96,100c-2.61,0-4.44-0.76-5.5-2.28c-1.06-1.52-1.59-3.26-1.59-5.24c0-1.06,0.12-2.13,0.37-3.23
				c0.25-1.09,0.55-2.1,0.9-3.02l7.09-18.1c0.21-0.56,0.32-1.06,0.32-1.48c0-0.7-0.18-1.32-0.53-1.85c-0.35-0.53-0.6-0.9-0.74-1.11
				l5.82-0.21c1.06-0.07,1.82,0.05,2.28,0.37c0.46,0.32,0.69,0.69,0.69,1.11s-0.25,1.2-0.74,2.33l-8.78,20.64
				c-0.78,1.76-1.2,2.79-1.27,3.07c-0.21,1.06-0.35,1.73-0.42,2.01c-0.07,0.28-0.11,0.46-0.11,0.53c0,0.07,0,0.35,0,0.85
				c0,0.92,0.23,1.69,0.69,2.33c0.46,0.64,1.25,0.95,2.38,0.95c0.7,0,1.52-0.21,2.43-0.64c0.92-0.42,1.59-0.85,2.01-1.27
				c1.76-1.83,3.51-4.25,5.24-7.25c1.73-3,3.33-5.98,4.82-8.94c0.28-0.7,0.64-1.06,1.06-1.06c0.35,0,0.53,0.25,0.53,0.74
				c0,0.28-0.11,0.71-0.32,1.27c-0.71,1.48-1.59,3.32-2.65,5.5c-1.06,2.19-2.31,4.36-3.76,6.51c-1.45,2.15-3.02,3.93-4.71,5.34
				C134.77,99.3,132.93,100,130.96,100z M139.53,57.04c-1.06,0-1.92-0.37-2.59-1.11c-0.67-0.74-1.01-1.64-1.01-2.7
				c0-1.34,0.53-2.5,1.59-3.49c1.06-0.99,2.22-1.48,3.49-1.48c1.13,0,2.05,0.35,2.75,1.06c0.7,0.71,1.06,1.55,1.06,2.54
				c0,1.34-0.53,2.54-1.59,3.6C142.17,56.51,140.94,57.04,139.53,57.04z"/>
			<path class="st1" d="M136.25,100.85c2.54-5.15,4.99-10.25,7.36-15.29c2.36-5.04,4.78-9.86,7.25-14.45
				c1.41-2.54,2.59-4.32,3.55-5.34c0.95-1.02,2.24-1.53,3.86-1.53c0.56,0,1.16,0.09,1.8,0.26c0.63,0.18,1.27,0.26,1.9,0.26
				c0.42,0,0.74-0.03,0.95-0.11c-0.99,0.57-2.26,1.96-3.81,4.18c-1.55,2.22-3.14,4.78-4.76,7.67c-1.62,2.89-3.07,5.61-4.34,8.15
				c1.34-1.62,2.73-3.25,4.18-4.87c1.45-1.62,3.05-3.18,4.82-4.66c1.69-1.48,3.72-3.02,6.09-4.6c2.36-1.59,4.67-2.91,6.93-3.97
				c2.26-1.06,4.06-1.59,5.4-1.59c0.49,0,0.85,0.04,1.06,0.11c-1.55,2.75-2.91,5.24-4.07,7.46c-1.16,2.22-2.35,4.59-3.55,7.09
				c-1.2,2.51-2.28,4.9-3.23,7.2c-0.95,2.29-1.57,4.22-1.85,5.77c-0.21,0.92-0.32,1.76-0.32,2.54c0,1.13,0.21,1.87,0.63,2.22
				c0.42,0.35,0.88,0.53,1.38,0.53c1.34,0,2.75-0.72,4.23-2.17c1.48-1.45,2.91-3.23,4.29-5.34c1.38-2.12,2.61-4.18,3.7-6.19
				c1.09-2.01,1.89-3.54,2.38-4.6c0.28-0.56,0.49-0.9,0.63-1.01c0.14-0.11,0.35-0.16,0.64-0.16c0.42,0,0.63,0.28,0.63,0.85
				c0,0.35-0.11,0.74-0.32,1.16c-0.85,1.62-1.85,3.56-3.02,5.82c-1.16,2.26-2.49,4.46-3.97,6.62c-1.48,2.15-3.11,3.95-4.87,5.4
				c-1.76,1.45-3.67,2.17-5.72,2.17c-1.41,0-2.88-0.49-4.39-1.48c-1.52-0.99-2.28-2.82-2.28-5.5c0-0.78,0.07-1.6,0.21-2.49
				c0.14-0.88,0.39-1.85,0.74-2.91c0.56-1.41,1.23-2.93,2.01-4.55c0.78-1.62,2.05-3.84,3.81-6.67c0.49-0.78,0.79-1.38,0.9-1.8
				c0.11-0.42,0.16-0.78,0.16-1.06c0-0.85-0.39-1.27-1.16-1.27c-0.63,0-1.57,0.35-2.8,1.06c-1.24,0.71-2.77,1.94-4.6,3.7
				c-1.76,1.69-3.86,4.09-6.3,7.2c-2.43,3.11-5.24,7.69-8.41,13.76c-0.49,0.92-1.04,1.41-1.64,1.48c-0.6,0.07-1.43,0.14-2.49,0.21
				c-0.7,0.07-1.38,0.12-2.01,0.16C137.2,100.3,136.67,100.5,136.25,100.85z"/>
			<path class="st1" d="M205.25,100c-1.91,0-3.49-0.95-4.76-2.86c-0.35-0.56-0.67-1.3-0.95-2.22c-0.28-0.92-0.42-1.94-0.42-3.07
				c0-0.63,0.04-1.29,0.11-1.96c0.07-0.67,0.21-1.36,0.42-2.06c-0.99,1.55-2.13,3.26-3.44,5.13c-1.31,1.87-2.79,3.49-4.45,4.87
				c-1.66,1.38-3.51,2.06-5.56,2.06c-0.71,0-1.45-0.11-2.22-0.32c-1.9-0.56-3.26-1.55-4.07-2.96c-0.81-1.41-1.22-3.1-1.22-5.08
				c0-2.19,0.44-4.59,1.32-7.2c0.88-2.61,2.01-5.15,3.39-7.62c1.38-2.47,2.8-4.59,4.29-6.35c2.12-2.47,4.55-4.45,7.3-5.93
				c2.75-1.48,5.54-2.22,8.36-2.22c2.54,0,4.94,0.67,7.2,2.01c1.06-1.97,2.19-4.18,3.39-6.61c1.2-2.43,2.4-4.85,3.6-7.25
				c1.2-2.4,2.26-4.6,3.18-6.61c0.92-2.01,1.62-3.55,2.12-4.6c1.06-2.47,2.06-4.04,3.02-4.71c0.95-0.67,2.1-1.01,3.44-1.01
				c0.78,0,1.64,0.09,2.59,0.26c0.95,0.18,1.89,0.23,2.8,0.16c-0.42,0.42-1.29,1.64-2.59,3.65c-1.31,2.01-2.84,4.57-4.6,7.67
				c-1.76,3.11-3.65,6.51-5.66,10.21c-2.01,3.7-3.99,7.44-5.93,11.22c-1.94,3.78-3.74,7.34-5.4,10.69
				c-1.66,3.35-2.98,6.23-3.97,8.63c-0.28,0.57-0.69,1.71-1.22,3.44c-0.53,1.73-0.79,3.23-0.79,4.5c0,0.92,0.21,1.71,0.63,2.38
				c0.42,0.67,1.13,1,2.12,1c1.34,0,2.7-0.69,4.07-2.06s2.7-3.07,3.97-5.08s2.4-3.99,3.39-5.93c0.99-1.94,1.73-3.47,2.22-4.6
				c0.35-0.78,0.78-1.16,1.27-1.16c0.42,0,0.64,0.32,0.64,0.95c0,0.07,0,0.19,0,0.37c0,0.18-0.07,0.37-0.21,0.58
				c-0.63,1.48-1.5,3.32-2.59,5.5c-1.09,2.19-2.38,4.38-3.86,6.56c-1.48,2.19-3.14,4-4.97,5.45C209.34,99.28,207.37,100,205.25,100z
				 M186.94,96.83c0.99,0,2.22-0.55,3.7-1.64c1.48-1.09,3.07-2.84,4.76-5.24c1.97-2.82,4.23-6.35,6.77-10.58s5.04-8.71,7.51-13.44
				c-0.92-0.85-1.98-1.27-3.17-1.27c-1.98,0-4.18,0.92-6.61,2.75c-2.43,1.84-4.8,4.16-7.09,6.98c-2.29,2.82-4.22,5.68-5.77,8.57
				c-1.06,1.98-1.82,3.78-2.28,5.4c-0.46,1.62-0.69,3.03-0.69,4.23C184.08,95.42,185.04,96.83,186.94,96.83z"/>
			<path class="st1" d="M243.77,100.32c-0.78,0.07-1.66-0.11-2.64-0.53c-0.99-0.42-1.85-1.2-2.59-2.33
				c-0.74-1.13-1.11-2.72-1.11-4.76c0-1.69,0.32-3.74,0.95-6.14c-0.85,1.34-1.94,2.98-3.28,4.92c-1.34,1.94-2.79,3.65-4.34,5.13
				c-1.34,1.27-2.61,2.19-3.81,2.75c-1.2,0.57-2.29,0.85-3.28,0.85c-1.84,0-3.32-0.83-4.45-2.49c-1.13-1.66-1.69-3.83-1.69-6.51
				c0-2.82,0.7-6.03,2.12-9.63c1.41-3.6,3.7-7.34,6.88-11.22c2.05-2.47,4.53-4.46,7.46-5.98c2.93-1.52,5.8-2.28,8.62-2.28
				c1.62,0,3.18,0.26,4.66,0.79c1.48,0.53,2.79,1.39,3.92,2.59c0.49,0.49,0.74,1.06,0.74,1.69c0,0.42-0.18,0.78-0.53,1.06
				c-0.35,0.28-0.81,0.35-1.38,0.21c-0.78-2.47-2.43-3.7-4.97-3.7c-1.2,0-2.58,0.39-4.13,1.16c-2.4,1.27-4.89,3.35-7.46,6.24
				c-2.58,2.89-4.82,5.89-6.72,9c-0.28,0.42-0.72,1.24-1.32,2.43c-0.6,1.2-1.18,2.54-1.75,4.02c-0.57,1.48-0.95,2.93-1.16,4.34
				c-0.07,0.42-0.11,0.72-0.11,0.9c0,0.18,0,0.44,0,0.79c0,2.33,0.88,3.49,2.65,3.49c2.12,0,4.51-1.55,7.2-4.66
				c1.83-2.26,3.49-4.62,4.98-7.09c1.48-2.47,3-5.11,4.55-7.94c1.06-1.9,2.04-3.49,2.96-4.76c0.92-1.27,2.22-1.9,3.92-1.9
				c0.78,0,1.55,0.11,2.33,0.32c0.78,0.21,1.59,0.25,2.43,0.11c-0.56,0.57-1.32,1.62-2.28,3.17c-0.95,1.55-1.96,3.32-3.02,5.29
				c-1.06,1.98-2.01,3.99-2.86,6.03c-0.85,2.05-1.45,3.81-1.8,5.29c-0.07,0.42-0.16,1.02-0.27,1.8c-0.11,0.78-0.16,1.34-0.16,1.69
				c0,1.98,0.56,2.96,1.69,2.96c1.13,0,2.35-0.67,3.65-2.01c1.3-1.34,2.59-3,3.86-4.97c1.27-1.97,2.44-3.97,3.49-5.98
				c1.06-2.01,1.9-3.65,2.54-4.92c0.28-0.7,0.71-1.06,1.27-1.06c0.35,0,0.53,0.25,0.53,0.74c0,0.21-0.11,0.6-0.32,1.16
				c-0.85,1.76-1.87,3.76-3.07,5.98s-2.51,4.38-3.92,6.46c-1.41,2.08-2.88,3.81-4.39,5.19S245.32,100.18,243.77,100.32z"/>
		</g>
		<g>
			<path class="st1" d="M410.33,132.1c-0.64,0-0.76-0.48-0.37-1.43c0.39-0.95,0.76-1.82,1.11-2.59c0.64-1.27,0.95-3.25,0.95-5.93
				c0-2.33-0.42-4.83-1.27-7.51c-0.85-2.68-2.5-5.12-4.97-7.3c-3.39-3.11-7.2-5.57-11.43-7.41c-4.23-1.83-8.66-3.32-13.28-4.44
				c-4.62-1.13-9.19-2.12-13.71-2.96c-2.75,3.81-5.7,7.23-8.84,10.27c-3.14,3.03-6.47,5.36-10,6.98c-1.98,0.92-3.88,1.6-5.71,2.06
				c-1.83,0.46-3.56,0.69-5.19,0.69c-3.95,0-7.18-1.04-9.68-3.12c-2.5-2.08-3.76-4.53-3.76-7.36c0-2.68,1.22-5.31,3.65-7.88
				c2.43-2.58,6.47-4.71,12.12-6.4c2.26-0.63,4.76-1.11,7.51-1.43c2.75-0.32,5.61-0.48,8.57-0.48c1.83,0,3.65,0.05,5.45,0.16
				c1.8,0.11,3.47,0.34,5.03,0.69c2.05-3.1,3.95-6.33,5.72-9.68c1.76-3.35,3.6-7,5.5-10.95c-5.57,0.14-10.41-0.69-14.5-2.49
				c-4.09-1.8-7.25-4.22-9.47-7.25c-2.22-3.03-3.33-6.28-3.33-9.74c0-2.82,0.81-5.59,2.43-8.31c1.62-2.72,4.18-5.19,7.67-7.41
				c3.49-2.22,7.95-3.97,13.39-5.24c0.35-0.14,0.69-0.21,1-0.21s0.62,0,0.9,0c1.06,0,1.59,0.21,1.59,0.64c0,0.71-1.13,1.2-3.39,1.48
				c-3.67,0.42-6.9,1.73-9.68,3.92c-2.79,2.19-4.94,4.8-6.46,7.83c-1.52,3.03-2.28,6.1-2.28,9.21c0,2.68,0.63,5.19,1.9,7.51
				c1.27,2.33,3.28,4.22,6.03,5.66c2.75,1.45,6.31,2.17,10.69,2.17c1.55,0,3.21-0.11,4.97-0.32c0.28-0.56,0.76-1.71,1.43-3.44
				c0.67-1.73,1.43-3.69,2.28-5.87c0.85-2.19,1.68-4.3,2.49-6.35c0.81-2.05,1.75-4.44,2.8-7.2c3.25-8.11,6.58-14.48,10-19.1
				c3.42-4.62,6.74-7.88,9.95-9.79c3.21-1.9,6.09-2.86,8.63-2.86c2.75,0,5.03,0.81,6.83,2.43c1.8,1.62,2.77,3.46,2.91,5.5
				c0.07,0.64,0.11,1.09,0.11,1.38c0,0.28,0,0.63,0,1.06c0,4.16-0.83,8.33-2.49,12.49c-1.66,4.16-3.95,8.11-6.88,11.85
				c-2.93,3.74-6.28,7.13-10.05,10.16c-3.78,3.03-7.8,5.57-12.07,7.62c-4.27,2.05-8.59,3.46-12.96,4.23
				c-1.06,2.12-1.99,4.01-2.8,5.66c-0.81,1.66-1.71,3.44-2.7,5.34c-0.99,1.91-2.29,4.34-3.92,7.3c-0.49,0.92-0.86,1.57-1.11,1.96
				c-0.25,0.39-0.62,0.97-1.11,1.75c3.53,0.85,7.37,2.03,11.54,3.55c4.16,1.52,8.27,3.32,12.33,5.4c4.06,2.08,7.67,4.36,10.85,6.83
				c3.95,3.03,6.75,6.46,8.41,10.27c1.66,3.81,2.49,7.16,2.49,10.05c0,2.05-0.32,3.6-0.95,4.66c-0.92,1.55-1.84,2.54-2.75,2.96
				C411.53,131.85,410.82,132.1,410.33,132.1z M336.14,109.45c1.55,0,3.23-0.21,5.03-0.63c1.8-0.42,3.69-1.09,5.66-2.01
				c5.93-2.89,11.39-7.9,16.41-15.03c-1.62-0.35-3.32-0.62-5.08-0.79c-1.76-0.18-3.56-0.26-5.4-0.26c-1.9,0-3.86,0.11-5.87,0.32
				c-2.01,0.21-3.97,0.6-5.87,1.16c-4.73,1.27-8.34,2.89-10.85,4.87c-2.5,1.98-3.76,3.99-3.76,6.03c0,1.76,0.88,3.26,2.65,4.5
				C330.81,108.83,333.18,109.45,336.14,109.45z M383.66,62.77c4.8-1.06,9.49-2.98,14.08-5.77c4.59-2.79,8.71-6.17,12.38-10.16
				c3.67-3.99,6.6-8.32,8.78-13.02c2.19-4.69,3.28-9.47,3.28-14.34c0-1.2-0.32-2.19-0.95-2.96c-0.63-0.78-1.55-1.16-2.75-1.16
				c-1.62,0-3.71,0.9-6.25,2.7s-5.43,4.8-8.68,9c-3.25,4.2-6.74,9.97-10.48,17.3c-1.9,3.67-3.58,6.9-5.03,9.68
				C386.6,56.83,385.14,59.74,383.66,62.77z"/>
			<path class="st1" d="M409.69,100.13c-2.61,0-4.45-0.76-5.5-2.28c-1.06-1.52-1.59-3.26-1.59-5.24c0-1.06,0.12-2.13,0.37-3.23
				c0.25-1.09,0.55-2.1,0.9-3.02l7.09-18.1c0.21-0.56,0.32-1.06,0.32-1.48c0-0.7-0.18-1.32-0.53-1.85c-0.35-0.53-0.6-0.9-0.74-1.11
				l5.82-0.21c1.06-0.07,1.82,0.05,2.28,0.37c0.46,0.32,0.69,0.69,0.69,1.11s-0.25,1.2-0.74,2.33l-8.78,20.64
				c-0.78,1.76-1.2,2.79-1.27,3.07c-0.21,1.06-0.35,1.73-0.42,2.01c-0.07,0.28-0.11,0.46-0.11,0.53c0,0.07,0,0.35,0,0.85
				c0,0.92,0.23,1.69,0.69,2.33c0.46,0.63,1.25,0.95,2.38,0.95c0.7,0,1.52-0.21,2.43-0.63c0.92-0.42,1.59-0.85,2.01-1.27
				c1.76-1.83,3.51-4.25,5.24-7.25c1.73-3,3.33-5.98,4.82-8.94c0.28-0.7,0.63-1.06,1.06-1.06c0.35,0,0.53,0.25,0.53,0.74
				c0,0.28-0.11,0.71-0.32,1.27c-0.71,1.48-1.59,3.32-2.65,5.5c-1.06,2.19-2.31,4.36-3.76,6.51c-1.45,2.15-3.02,3.93-4.71,5.34
				C413.5,99.43,411.67,100.13,409.69,100.13z M418.27,57.16c-1.06,0-1.92-0.37-2.59-1.11c-0.67-0.74-1.01-1.64-1.01-2.7
				c0-1.34,0.53-2.5,1.59-3.49c1.06-0.99,2.22-1.48,3.49-1.48c1.13,0,2.05,0.35,2.75,1.06c0.7,0.71,1.06,1.55,1.06,2.54
				c0,1.34-0.53,2.54-1.59,3.6C420.91,56.64,419.68,57.16,418.27,57.16z"/>
			<path class="st1" d="M430.33,100.45c-2.96,0-4.97-0.79-6.03-2.38c-1.06-1.59-1.59-3.47-1.59-5.66c0-2.26,0.32-4.59,0.95-6.98
				c0.63-2.4,1.2-4.41,1.69-6.03c1.13-3.95,2.56-8.17,4.29-12.65c1.73-4.48,3.63-8.89,5.72-13.23c2.08-4.34,4.14-8.24,6.19-11.69
				c1.62-2.75,3.37-4.82,5.24-6.19c1.87-1.38,3.51-2.06,4.92-2.06c1.13,0,2.03,0.41,2.7,1.22c0.67,0.81,1.01,2.03,1.01,3.65
				c0,1.13-0.2,2.47-0.58,4.02c-0.39,1.55-1.04,3.32-1.96,5.29c-2.47,5.5-5.42,11.01-8.84,16.51c-3.42,5.5-7.74,10.65-12.96,15.45
				c-0.28,0.92-0.65,1.99-1.11,3.23c-0.46,1.24-0.86,2.49-1.22,3.76c-0.42,1.9-0.63,3.53-0.63,4.87c0,2.19,0.44,3.83,1.32,4.92
				c0.88,1.09,1.96,1.64,3.23,1.64c1.13,0,2.33-0.41,3.6-1.22c1.27-0.81,2.47-1.99,3.6-3.55c1.69-2.47,3.23-4.99,4.6-7.57
				c1.38-2.57,2.42-4.57,3.12-5.98c0.42-0.78,0.88-1.16,1.38-1.16c0.35,0,0.53,0.21,0.53,0.63c0,0.35-0.11,0.74-0.32,1.16
				c-0.64,1.41-1.47,3.23-2.49,5.45c-1.02,2.22-2.29,4.45-3.81,6.67c-1.52,2.22-3.32,4.09-5.4,5.61
				C435.39,99.69,433.01,100.45,430.33,100.45z M431.92,76.32c2.54-2.61,5.01-5.63,7.41-9.05c2.4-3.42,4.64-6.99,6.72-10.69
				c2.08-3.7,3.83-7.21,5.24-10.53c0.49-1.06,0.9-2.22,1.22-3.49c0.32-1.27,0.48-2.33,0.48-3.18c0-0.99-0.25-1.48-0.74-1.48
				c-0.28,0-0.71,0.26-1.27,0.79c-0.57,0.53-1.31,1.43-2.22,2.7c-1.34,1.76-2.8,4.16-4.39,7.2c-1.59,3.03-3.19,6.28-4.82,9.74
				c-1.62,3.46-3.11,6.79-4.44,10C433.75,71.54,432.69,74.2,431.92,76.32z"/>
			<path class="st1" d="M452.87,100.45c-2.96,0-4.97-0.79-6.03-2.38c-1.06-1.59-1.59-3.47-1.59-5.66c0-2.26,0.32-4.59,0.95-6.98
				c0.63-2.4,1.2-4.41,1.69-6.03c1.13-3.95,2.56-8.17,4.29-12.65c1.73-4.48,3.63-8.89,5.72-13.23c2.08-4.34,4.14-8.24,6.19-11.69
				c1.62-2.75,3.37-4.82,5.24-6.19c1.87-1.38,3.51-2.06,4.92-2.06c1.13,0,2.03,0.41,2.7,1.22c0.67,0.81,1.01,2.03,1.01,3.65
				c0,1.13-0.2,2.47-0.58,4.02c-0.39,1.55-1.04,3.32-1.96,5.29c-2.47,5.5-5.42,11.01-8.84,16.51c-3.42,5.5-7.74,10.65-12.96,15.45
				c-0.28,0.92-0.65,1.99-1.11,3.23c-0.46,1.24-0.86,2.49-1.22,3.76c-0.42,1.9-0.63,3.53-0.63,4.87c0,2.19,0.44,3.83,1.32,4.92
				c0.88,1.09,1.96,1.64,3.23,1.64c1.13,0,2.33-0.41,3.6-1.22c1.27-0.81,2.47-1.99,3.6-3.55c1.69-2.47,3.23-4.99,4.6-7.57
				c1.38-2.57,2.42-4.57,3.12-5.98c0.42-0.78,0.88-1.16,1.38-1.16c0.35,0,0.53,0.21,0.53,0.63c0,0.35-0.11,0.74-0.32,1.16
				c-0.64,1.41-1.47,3.23-2.49,5.45c-1.02,2.22-2.29,4.45-3.81,6.67c-1.52,2.22-3.32,4.09-5.4,5.61
				C457.93,99.69,455.55,100.45,452.87,100.45z M454.46,76.32c2.54-2.61,5.01-5.63,7.41-9.05c2.4-3.42,4.64-6.99,6.72-10.69
				c2.08-3.7,3.83-7.21,5.24-10.53c0.49-1.06,0.9-2.22,1.22-3.49c0.32-1.27,0.48-2.33,0.48-3.18c0-0.99-0.25-1.48-0.74-1.48
				c-0.28,0-0.71,0.26-1.27,0.79c-0.57,0.53-1.31,1.43-2.22,2.7c-1.34,1.76-2.8,4.16-4.39,7.2c-1.59,3.03-3.19,6.28-4.82,9.74
				c-1.62,3.46-3.11,6.79-4.44,10C456.29,71.54,455.24,74.2,454.46,76.32z"/>
			<path class="st1" d="M475.2,100.13c-2.68,0-4.66-0.9-5.93-2.7c-1.27-1.8-1.91-4-1.91-6.61c0-3.18,0.74-6.49,2.22-9.95
				c1.41-3.24,3.21-6.21,5.4-8.89c2.19-2.68,4.55-4.85,7.09-6.51c2.54-1.66,5.01-2.49,7.41-2.49c2.68,0,4.66,0.88,5.93,2.65
				c1.27,1.76,1.9,3.99,1.9,6.67c0,3.25-0.74,6.56-2.22,9.95c-0.85,1.91-2.05,4.01-3.6,6.3c-1.55,2.29-3.32,4.39-5.29,6.3
				c0.42,0.78,1.02,1.43,1.8,1.96c0.78,0.53,1.83,0.79,3.18,0.79c1.69,0,3.3-0.7,4.82-2.12c1.52-1.41,2.91-3.12,4.18-5.13
				c1.27-2.01,2.4-4.04,3.39-6.09c0.99-2.05,1.8-3.7,2.43-4.97c0.21-0.42,0.56-0.63,1.06-0.63c0.28,0,0.49,0.12,0.63,0.37
				c0.14,0.25,0.11,0.62-0.11,1.11c-0.42,1.06-1.13,2.63-2.12,4.71c-0.99,2.08-2.19,4.23-3.6,6.46c-1.41,2.22-3.04,4.11-4.87,5.66
				c-1.83,1.55-3.88,2.33-6.14,2.33c-1.55,0-2.89-0.26-4.02-0.79c-1.13-0.53-2.05-1.18-2.75-1.96c-1.48,1.13-2.96,2.01-4.45,2.65
				C478.17,99.82,476.68,100.13,475.2,100.13z M476.79,97.81c1.9,0,3.95-0.92,6.14-2.75c-0.57-0.85-0.99-1.73-1.27-2.65
				c-0.28-0.92-0.42-1.76-0.42-2.54c0-1.27,0.3-2.36,0.9-3.28c0.6-0.92,1.53-1.38,2.8-1.38c0.92,0,1.67,0.34,2.28,1.01
				c0.6,0.67,0.9,1.43,0.9,2.28c0,0.21-0.02,0.41-0.05,0.58c-0.04,0.18-0.09,0.37-0.16,0.58c1.2-1.62,2.33-3.53,3.39-5.72
				c2.33-5.01,3.49-9.14,3.49-12.38c0-1.62-0.32-2.89-0.95-3.81c-0.63-0.92-1.59-1.38-2.86-1.38c-1.48,0-3.09,0.63-4.82,1.9
				c-1.73,1.27-3.39,2.96-4.97,5.08c-1.59,2.12-2.98,4.48-4.18,7.09c-1.13,2.4-2.03,4.71-2.7,6.93c-0.67,2.22-1.01,4.15-1.01,5.77
				c0,1.41,0.28,2.54,0.85,3.39C474.71,97.38,475.59,97.81,476.79,97.81z"/>
		</g>
		<g class="st2">
			<path class="st3" d="M284.65,75.06l11.55,16.01c1.61-3.01,2.74-5.31,3.38-6.92c0.64-1.61,0.97-2.97,0.97-4.1
				c0-2.23-1.6-3.57-4.8-4.03V75.3h13.42v0.69c-1.06,0.09-1.92,0.27-2.59,0.54c-0.67,0.26-1.3,0.67-1.9,1.22
				c-1.17,1.1-2.62,3.45-4.35,7.04L299.27,87c-0.58,1.24-1.42,2.86-2.52,4.87c0.87,1.15,1.9,2.39,3.09,3.71
				c1.18,1.32,2.24,2.41,3.16,3.26c1.31,1.2,2.46,2.07,3.43,2.61c0.98,0.54,1.93,0.81,2.85,0.81c0.99,0,1.82-0.28,2.48-0.83
				c0.67-0.55,1.25-1.45,1.76-2.69l0.69,0.31c-1.15,3.91-3.62,5.87-7.42,5.87c-1.27,0-2.59-0.24-3.97-0.72
				c-1.38-0.48-2.64-1.15-3.76-2c-1.73-1.29-3.51-3.03-5.35-5.21c-1.01,1.47-1.84,2.58-2.49,3.31c-1.34,1.5-2.9,2.64-4.68,3.43
				c-1.78,0.79-3.69,1.19-5.72,1.19c-1.87,0-3.67-0.34-5.41-1.04c-1.74-0.69-3.16-1.63-4.27-2.83c-2.05-2.19-3.07-4.95-3.07-8.28
				c0-3.29,0.99-6.28,2.97-8.97c0.78-1.06,1.72-2.05,2.81-2.98c1.09-0.93,2.59-2.02,4.5-3.26l0.55-0.38
				c-1.43-2.02-2.44-3.62-3.04-4.8c-1.4-2.71-2.1-5.14-2.1-7.28c0-1.33,0.32-2.66,0.97-3.97c0.81-1.73,1.99-3.04,3.56-3.93
				c1.57-0.9,3.45-1.35,5.64-1.35c2.86,0,5.21,0.78,7.05,2.33s2.77,3.55,2.77,5.99c0,1.79-0.47,3.39-1.42,4.78s-2.48,2.75-4.6,4.09
				C286.23,73.99,285.2,74.67,284.65,75.06z M279.67,78.13c-1.9,1.17-3.38,2.81-4.43,4.9c-1.05,2.09-1.58,4.43-1.58,7
				c0,1.77,0.28,3.49,0.83,5.14c0.55,1.66,1.3,3.06,2.24,4.21c0.87,1.04,1.93,1.84,3.16,2.42c1.23,0.58,2.52,0.86,3.88,0.86
				c2.14,0,4.05-0.67,5.73-2c0.62-0.51,1.18-1.07,1.69-1.69c0.51-0.62,1.14-1.53,1.9-2.73L279.67,78.13z M283.99,74.3
				c1.08-0.85,1.89-1.6,2.43-2.24c0.54-0.64,1.02-1.42,1.43-2.31c0.8-1.7,1.21-3.53,1.21-5.49c0-2.3-0.55-4.13-1.65-5.49
				s-2.58-2.04-4.44-2.04c-1.61,0-2.9,0.52-3.89,1.55c-0.99,1.04-1.48,2.38-1.48,4.04c0,0.99,0.2,1.98,0.6,2.97
				c0.4,0.99,1.16,2.35,2.29,4.07C281.56,71.02,282.73,72.67,283.99,74.3z"/>
		</g>
	</g>
</g>
</svg>
