<?xml version="1.0" encoding="utf-8"?>
<!-- Generator: Adobe Illustrator 26.1.0, SVG Export Plug-In . SVG Version: 6.00 Build 0)  -->
<svg version="1.1" id="Layer_1" xmlns="http://www.w3.org/2000/svg" xmlns:xlink="http://www.w3.org/1999/xlink" x="0px" y="0px"
	 viewBox="0 0 44.92 48.76" style="enable-background:new 0 0 44.92 48.76;" xml:space="preserve">
<style type="text/css">
	.st0{opacity:0.8;fill:url(#SVGID_1_);}
	.st1{fill:#FFFFFF;}
</style>
<g>
	<path d="M33.13,14.15c1.2-1.98-1.2-4.85-3.42-3.42c-0.02,0.01-0.04,0.02-0.05,0.03c0.13-0.12,0.25-0.24,0.37-0.36
		c2.05-1.94-0.6-5.43-3.03-3.93c-1.52,0.94-3.02,1.92-4.51,2.9c1.23-1.19,2.47-2.37,3.74-3.52c2.17-1.96-0.59-5.23-3.03-3.93
		c-0.58,0.31-1.15,0.65-1.72,0.97c0.36-1.84-1.67-3.58-3.71-2.64C12.25,2.8,7.18,6.18,2.66,10.23C0.7,11.99,2.7,14.65,4.8,14.42
		c-1.51,1.81-2.98,3.66-4.37,5.56c-1.41,1.93,0.93,4.15,2.86,3.65c-0.44,0.58-0.88,1.15-1.31,1.74c-0.73,0.99-0.26,2.55,0.64,3.23
		c1.03,0.77,2.33,0.65,3.28-0.2c0.27-0.24,0.55-0.47,0.82-0.71c-0.45,0.53-0.91,1.04-1.36,1.57c-0.87,1.03-1.01,2.52,0,3.54
		c0.81,0.81,2.15,0.95,3.1,0.35c0.13,0.62,0.47,1.2,0.94,1.55c0.97,0.72,2.02,0.62,2.95,0.03c-0.07,1.83,1.97,3.71,3.71,2.39
		c1.03-0.78,2.05-1.56,3.08-2.33c0.69,1.31,2.48,2.03,3.94,0.71c2.28-2.07,4.7-3.92,7.3-5.57c1.33-0.85,1.4-2.32,0.8-3.39l2.52-2.79
		c0.83-0.92,0.99-2.28,0.2-3.28c-0.15-0.19-0.34-0.35-0.55-0.5c0.55-0.51,1.11-1.02,1.66-1.53C36.77,16.81,35.13,14.08,33.13,14.15z
		"/>
	<radialGradient id="SVGID_1_" cx="23.9188" cy="27.7623" r="21" gradientUnits="userSpaceOnUse">
		<stop  offset="0" style="stop-color:#000057"/>
		<stop  offset="0.2482" style="stop-color:#4C4C89;stop-opacity:0.7518"/>
		<stop  offset="0.5193" style="stop-color:#9898BB;stop-opacity:0.4807"/>
		<stop  offset="0.744" style="stop-color:#D0D0E0;stop-opacity:0.256"/>
		<stop  offset="0.9103" style="stop-color:#F2F2F6;stop-opacity:0.0897"/>
		<stop  offset="1" style="stop-color:#FFFFFF;stop-opacity:0"/>
	</radialGradient>
	<circle class="st0" cx="23.92" cy="27.76" r="21"/>
	<path class="st1" d="M25.71,16.81c-0.15,0.01-0.3,0.02-0.45,0.02c-1.65,0-3.19-0.83-4.09-2.21v7.52c0,3.07-2.49,5.56-5.56,5.56
		c-3.07,0-5.56-2.49-5.56-5.56c0-3.07,2.49-5.56,5.56-5.56l0,0c0.12,0,0.23,0.01,0.34,0.02v2.74c-0.11-0.01-0.23-0.03-0.34-0.03
		c-1.57,0-2.84,1.27-2.84,2.84s1.27,2.84,2.84,2.84c1.57,0,2.95-1.24,2.95-2.8l0.03-12.78h2.62c0.25,2.35,2.14,4.19,4.5,4.36
		L25.71,16.81"/>
</g>
</svg>
