<?xml version="1.0" encoding="utf-8"?>
<!-- Generator: Adobe Illustrator 26.1.0, SVG Export Plug-In . SVG Version: 6.00 Build 0)  -->
<svg version="1.1" id="Layer_1" xmlns="http://www.w3.org/2000/svg" xmlns:xlink="http://www.w3.org/1999/xlink" x="0px" y="0px"
	 viewBox="0 0 44.92 48.76" style="enable-background:new 0 0 44.92 48.76;" xml:space="preserve">
<style type="text/css">
	.st0{opacity:0.8;fill:url(#SVGID_1_);}
	.st1{fill:#FFFFFF;}
</style>
<g>
	<path d="M33.13,14.15c1.2-1.98-1.2-4.85-3.42-3.42c-0.02,0.01-0.04,0.02-0.05,0.03c0.13-0.12,0.25-0.24,0.37-0.36
		c2.05-1.94-0.6-5.43-3.03-3.93c-1.52,0.94-3.02,1.92-4.51,2.9c1.23-1.19,2.47-2.37,3.74-3.52c2.17-1.96-0.59-5.23-3.03-3.93
		c-0.58,0.31-1.15,0.65-1.72,0.97c0.36-1.84-1.67-3.58-3.71-2.64C12.25,2.8,7.18,6.18,2.66,10.23C0.7,11.99,2.7,14.65,4.8,14.42
		c-1.51,1.81-2.98,3.66-4.37,5.56c-1.41,1.93,0.93,4.15,2.86,3.65c-0.44,0.58-0.88,1.15-1.31,1.74c-0.73,0.99-0.26,2.55,0.64,3.23
		c1.03,0.77,2.33,0.65,3.28-0.2c0.27-0.24,0.55-0.47,0.82-0.71c-0.45,0.53-0.91,1.04-1.36,1.57c-0.87,1.03-1.01,2.52,0,3.54
		c0.81,0.81,2.15,0.95,3.1,0.35c0.13,0.62,0.47,1.2,0.94,1.55c0.97,0.72,2.02,0.62,2.95,0.03c-0.07,1.83,1.97,3.71,3.71,2.39
		c1.03-0.78,2.05-1.56,3.08-2.33c0.69,1.31,2.48,2.03,3.94,0.71c2.28-2.07,4.7-3.92,7.3-5.57c1.33-0.85,1.4-2.32,0.8-3.39l2.52-2.79
		c0.83-0.92,0.99-2.28,0.2-3.28c-0.15-0.19-0.34-0.35-0.55-0.5c0.55-0.51,1.11-1.02,1.66-1.53C36.77,16.81,35.13,14.08,33.13,14.15z
		"/>
	<radialGradient id="SVGID_1_" cx="23.9188" cy="27.7623" r="21" gradientUnits="userSpaceOnUse">
		<stop  offset="0" style="stop-color:#000057"/>
		<stop  offset="0.2482" style="stop-color:#4C4C89;stop-opacity:0.7518"/>
		<stop  offset="0.5193" style="stop-color:#9898BB;stop-opacity:0.4807"/>
		<stop  offset="0.744" style="stop-color:#D0D0E0;stop-opacity:0.256"/>
		<stop  offset="0.9103" style="stop-color:#F2F2F6;stop-opacity:0.0897"/>
		<stop  offset="1" style="stop-color:#FFFFFF;stop-opacity:0"/>
	</radialGradient>
	<circle class="st0" cx="23.92" cy="27.76" r="21"/>
	<g>
		<path class="st1" d="M24.79,25.93l-6.03-8.76l-0.68-0.99l-4.31-6.26L13.41,9.4h-5.3l1.29,1.88l5.73,8.33l0.68,0.99l4.61,6.69
			l0.36,0.52h5.3L24.79,25.93z M21.41,26.61l-4.79-6.95l-0.68-0.99l-5.55-8.07h2.39l4.49,6.53l0.68,0.99l5.85,8.5H21.41z"/>
		<polygon class="st1" points="15.94,18.66 16.62,19.65 15.82,20.59 9.62,27.81 8.09,27.81 15.13,19.6 		"/>
		<polygon class="st1" points="25.44,9.4 18.76,17.17 17.95,18.11 17.27,17.12 18.08,16.18 22.6,10.91 23.91,9.4 		"/>
	</g>
</g>
</svg>
